/* XPM */
static char * hue_gradient_xpm[] = {
"10 256 256 2",
"  	c None",
". 	c #FF0000",
"+ 	c #FF0500",
"@ 	c #FF0B00",
"# 	c #FF1100",
"$ 	c #FF1700",
"% 	c #FF1D00",
"& 	c #FF2300",
"* 	c #FF2900",
"= 	c #FF2F00",
"- 	c #FF3500",
"; 	c #FF3B00",
"> 	c #FF4100",
", 	c #FF4700",
"' 	c #FF4E00",
") 	c #FF5300",
"! 	c #FF5900",
"~ 	c #FF5F00",
"{ 	c #FF6600",
"] 	c #FF6B00",
"^ 	c #FF7100",
"/ 	c #FF7700",
"( 	c #FF7E00",
"_ 	c #FF8300",
": 	c #FF8900",
"< 	c #FF8F00",
"[ 	c #FF9600",
"} 	c #FF9C00",
"| 	c #FFA100",
"1 	c #FFA700",
"2 	c #FFAE00",
"3 	c #FFB300",
"4 	c #FFB900",
"5 	c #FFBF00",
"6 	c #FFC600",
"7 	c #FFCC00",
"8 	c #FFD200",
"9 	c #FFD700",
"0 	c #FFDE00",
"a 	c #FFE300",
"b 	c #FFEA00",
"c 	c #FFEF00",
"d 	c #FFF600",
"e 	c #FFFC00",
"f 	c #FBFF00",
"g 	c #F6FF00",
"h 	c #EFFF00",
"i 	c #EAFF00",
"j 	c #E3FF00",
"k 	c #DEFF00",
"l 	c #D7FF00",
"m 	c #D1FF00",
"n 	c #CBFF00",
"o 	c #C6FF00",
"p 	c #BFFF00",
"q 	c #BAFF00",
"r 	c #B3FF00",
"s 	c #AEFF00",
"t 	c #A7FF00",
"u 	c #A1FF00",
"v 	c #9BFF00",
"w 	c #96FF00",
"x 	c #8FFF00",
"y 	c #8AFF00",
"z 	c #83FF00",
"A 	c #7EFF00",
"B 	c #78FF00",
"C 	c #71FF00",
"D 	c #6BFF00",
"E 	c #66FF00",
"F 	c #60FF00",
"G 	c #59FF00",
"H 	c #53FF00",
"I 	c #4EFF00",
"J 	c #48FF00",
"K 	c #41FF00",
"L 	c #3BFF00",
"M 	c #36FF00",
"N 	c #30FF00",
"O 	c #29FF00",
"P 	c #23FF00",
"Q 	c #1EFF00",
"R 	c #18FF00",
"S 	c #11FF00",
"T 	c #0BFF00",
"U 	c #06FF00",
"V 	c #00FF00",
"W 	c #00FF06",
"X 	c #00FF0C",
"Y 	c #00FF11",
"Z 	c #00FF17",
"` 	c #00FF1E",
" .	c #00FF24",
"..	c #00FF29",
"+.	c #00FF2F",
"@.	c #00FF36",
"#.	c #00FF3C",
"$.	c #00FF41",
"%.	c #00FF47",
"&.	c #00FF4E",
"*.	c #00FF54",
"=.	c #00FF59",
"-.	c #00FF5F",
";.	c #00FF66",
">.	c #00FF6C",
",.	c #00FF71",
"'.	c #00FF77",
").	c #00FF7E",
"!.	c #00FF84",
"~.	c #00FF89",
"{.	c #00FF8F",
"].	c #00FF96",
"^.	c #00FF9C",
"/.	c #00FFA1",
"(.	c #00FFA7",
"_.	c #00FFAE",
":.	c #00FFB4",
"<.	c #00FFB9",
"[.	c #00FFBF",
"}.	c #00FFC6",
"|.	c #00FFCC",
"1.	c #00FFD1",
"2.	c #00FFD7",
"3.	c #00FFDE",
"4.	c #00FFE4",
"5.	c #00FFE9",
"6.	c #00FFEF",
"7.	c #00FFF6",
"8.	c #00FFFC",
"9.	c #00FCFF",
"0.	c #00F6FF",
"a.	c #00F0FF",
"b.	c #00EAFF",
"c.	c #00E3FF",
"d.	c #00DDFF",
"e.	c #00D7FF",
"f.	c #00D1FF",
"g.	c #00CCFF",
"h.	c #00C6FF",
"i.	c #00C0FF",
"j.	c #00BAFF",
"k.	c #00B3FF",
"l.	c #00ADFF",
"m.	c #00A7FF",
"n.	c #00A1FF",
"o.	c #009CFF",
"p.	c #0096FF",
"q.	c #0090FF",
"r.	c #008AFF",
"s.	c #0083FF",
"t.	c #007DFF",
"u.	c #0077FF",
"v.	c #0071FF",
"w.	c #006CFF",
"x.	c #0066FF",
"y.	c #0060FF",
"z.	c #005AFF",
"A.	c #0053FF",
"B.	c #004DFF",
"C.	c #0047FF",
"D.	c #0041FF",
"E.	c #003CFF",
"F.	c #0036FF",
"G.	c #0030FF",
"H.	c #002AFF",
"I.	c #0023FF",
"J.	c #001DFF",
"K.	c #0017FF",
"L.	c #0011FF",
"M.	c #000CFF",
"N.	c #0006FF",
"O.	c #0000FF",
"P.	c #0500FF",
"Q.	c #0C00FF",
"R.	c #1200FF",
"S.	c #1800FF",
"T.	c #1E00FF",
"U.	c #2300FF",
"V.	c #2900FF",
"W.	c #2F00FF",
"X.	c #3500FF",
"Y.	c #3C00FF",
"Z.	c #4200FF",
"`.	c #4800FF",
" +	c #4E00FF",
".+	c #5300FF",
"++	c #5900FF",
"@+	c #5F00FF",
"#+	c #6500FF",
"$+	c #6C00FF",
"%+	c #7200FF",
"&+	c #7800FF",
"*+	c #7E00FF",
"=+	c #8300FF",
"-+	c #8900FF",
";+	c #8F00FF",
">+	c #9500FF",
",+	c #9C00FF",
"'+	c #A200FF",
")+	c #A800FF",
"!+	c #AE00FF",
"~+	c #B300FF",
"{+	c #B900FF",
"]+	c #BF00FF",
"^+	c #C500FF",
"/+	c #CC00FF",
"(+	c #D200FF",
"_+	c #D800FF",
":+	c #DE00FF",
"<+	c #E300FF",
"[+	c #E900FF",
"}+	c #EF00FF",
"|+	c #F500FF",
"1+	c #FC00FF",
"2+	c #FF00FB",
"3+	c #FF00F5",
"4+	c #FF00EF",
"5+	c #FF00EA",
"6+	c #FF00E4",
"7+	c #FF00DE",
"8+	c #FF00D8",
"9+	c #FF00D1",
"0+	c #FF00CB",
"a+	c #FF00C5",
"b+	c #FF00BF",
"c+	c #FF00BA",
"d+	c #FF00B4",
"e+	c #FF00AE",
"f+	c #FF00A8",
"g+	c #FF00A1",
"h+	c #FF009B",
"i+	c #FF0095",
"j+	c #FF008F",
"k+	c #FF008A",
"l+	c #FF0084",
"m+	c #FF007E",
"n+	c #FF0078",
"o+	c #FF0071",
"p+	c #FF006B",
"q+	c #FF0065",
"r+	c #FF005F",
"s+	c #FF005A",
"t+	c #FF0054",
"u+	c #FF004E",
"v+	c #FF0048",
"w+	c #FF0041",
"x+	c #FF003B",
"y+	c #FF0035",
"z+	c #FF002F",
"A+	c #FF002A",
"B+	c #FF0024",
"C+	c #FF001E",
"D+	c #FF0018",
"E+	c #FF0011",
"F+	c #FF000B",
"G+	c #FF0005",
". . . . . . . . . . ",
"+ + + + + + + + + + ",
"@ @ @ @ @ @ @ @ @ @ ",
"# # # # # # # # # # ",
"$ $ $ $ $ $ $ $ $ $ ",
"% % % % % % % % % % ",
"& & & & & & & & & & ",
"* * * * * * * * * * ",
"= = = = = = = = = = ",
"- - - - - - - - - - ",
"; ; ; ; ; ; ; ; ; ; ",
"> > > > > > > > > > ",
", , , , , , , , , , ",
"' ' ' ' ' ' ' ' ' ' ",
") ) ) ) ) ) ) ) ) ) ",
"! ! ! ! ! ! ! ! ! ! ",
"~ ~ ~ ~ ~ ~ ~ ~ ~ ~ ",
"{ { { { { { { { { { ",
"] ] ] ] ] ] ] ] ] ] ",
"^ ^ ^ ^ ^ ^ ^ ^ ^ ^ ",
"/ / / / / / / / / / ",
"( ( ( ( ( ( ( ( ( ( ",
"_ _ _ _ _ _ _ _ _ _ ",
": : : : : : : : : : ",
"< < < < < < < < < < ",
"[ [ [ [ [ [ [ [ [ [ ",
"} } } } } } } } } } ",
"| | | | | | | | | | ",
"1 1 1 1 1 1 1 1 1 1 ",
"2 2 2 2 2 2 2 2 2 2 ",
"3 3 3 3 3 3 3 3 3 3 ",
"4 4 4 4 4 4 4 4 4 4 ",
"5 5 5 5 5 5 5 5 5 5 ",
"6 6 6 6 6 6 6 6 6 6 ",
"7 7 7 7 7 7 7 7 7 7 ",
"8 8 8 8 8 8 8 8 8 8 ",
"9 9 9 9 9 9 9 9 9 9 ",
"0 0 0 0 0 0 0 0 0 0 ",
"a a a a a a a a a a ",
"b b b b b b b b b b ",
"c c c c c c c c c c ",
"d d d d d d d d d d ",
"e e e e e e e e e e ",
"f f f f f f f f f f ",
"g g g g g g g g g g ",
"h h h h h h h h h h ",
"i i i i i i i i i i ",
"j j j j j j j j j j ",
"k k k k k k k k k k ",
"l l l l l l l l l l ",
"m m m m m m m m m m ",
"n n n n n n n n n n ",
"o o o o o o o o o o ",
"p p p p p p p p p p ",
"q q q q q q q q q q ",
"r r r r r r r r r r ",
"s s s s s s s s s s ",
"t t t t t t t t t t ",
"u u u u u u u u u u ",
"v v v v v v v v v v ",
"w w w w w w w w w w ",
"x x x x x x x x x x ",
"y y y y y y y y y y ",
"z z z z z z z z z z ",
"A A A A A A A A A A ",
"B B B B B B B B B B ",
"C C C C C C C C C C ",
"D D D D D D D D D D ",
"E E E E E E E E E E ",
"F F F F F F F F F F ",
"G G G G G G G G G G ",
"H H H H H H H H H H ",
"I I I I I I I I I I ",
"J J J J J J J J J J ",
"K K K K K K K K K K ",
"L L L L L L L L L L ",
"M M M M M M M M M M ",
"N N N N N N N N N N ",
"O O O O O O O O O O ",
"P P P P P P P P P P ",
"Q Q Q Q Q Q Q Q Q Q ",
"R R R R R R R R R R ",
"S S S S S S S S S S ",
"T T T T T T T T T T ",
"U U U U U U U U U U ",
"V V V V V V V V V V ",
"W W W W W W W W W W ",
"X X X X X X X X X X ",
"Y Y Y Y Y Y Y Y Y Y ",
"Z Z Z Z Z Z Z Z Z Z ",
"` ` ` ` ` ` ` ` ` ` ",
" . . . . . . . . . .",
"....................",
"+.+.+.+.+.+.+.+.+.+.",
"@.@.@.@.@.@.@.@.@.@.",
"#.#.#.#.#.#.#.#.#.#.",
"$.$.$.$.$.$.$.$.$.$.",
"%.%.%.%.%.%.%.%.%.%.",
"&.&.&.&.&.&.&.&.&.&.",
"*.*.*.*.*.*.*.*.*.*.",
"=.=.=.=.=.=.=.=.=.=.",
"-.-.-.-.-.-.-.-.-.-.",
";.;.;.;.;.;.;.;.;.;.",
">.>.>.>.>.>.>.>.>.>.",
",.,.,.,.,.,.,.,.,.,.",
"'.'.'.'.'.'.'.'.'.'.",
").).).).).).).).).).",
"!.!.!.!.!.!.!.!.!.!.",
"~.~.~.~.~.~.~.~.~.~.",
"{.{.{.{.{.{.{.{.{.{.",
"].].].].].].].].].].",
"^.^.^.^.^.^.^.^.^.^.",
"/./././././././././.",
"(.(.(.(.(.(.(.(.(.(.",
"_._._._._._._._._._.",
":.:.:.:.:.:.:.:.:.:.",
"<.<.<.<.<.<.<.<.<.<.",
"[.[.[.[.[.[.[.[.[.[.",
"}.}.}.}.}.}.}.}.}.}.",
"|.|.|.|.|.|.|.|.|.|.",
"1.1.1.1.1.1.1.1.1.1.",
"2.2.2.2.2.2.2.2.2.2.",
"3.3.3.3.3.3.3.3.3.3.",
"4.4.4.4.4.4.4.4.4.4.",
"5.5.5.5.5.5.5.5.5.5.",
"6.6.6.6.6.6.6.6.6.6.",
"7.7.7.7.7.7.7.7.7.7.",
"8.8.8.8.8.8.8.8.8.8.",
"9.9.9.9.9.9.9.9.9.9.",
"0.0.0.0.0.0.0.0.0.0.",
"a.a.a.a.a.a.a.a.a.a.",
"b.b.b.b.b.b.b.b.b.b.",
"c.c.c.c.c.c.c.c.c.c.",
"d.d.d.d.d.d.d.d.d.d.",
"e.e.e.e.e.e.e.e.e.e.",
"f.f.f.f.f.f.f.f.f.f.",
"g.g.g.g.g.g.g.g.g.g.",
"h.h.h.h.h.h.h.h.h.h.",
"i.i.i.i.i.i.i.i.i.i.",
"j.j.j.j.j.j.j.j.j.j.",
"k.k.k.k.k.k.k.k.k.k.",
"l.l.l.l.l.l.l.l.l.l.",
"m.m.m.m.m.m.m.m.m.m.",
"n.n.n.n.n.n.n.n.n.n.",
"o.o.o.o.o.o.o.o.o.o.",
"p.p.p.p.p.p.p.p.p.p.",
"q.q.q.q.q.q.q.q.q.q.",
"r.r.r.r.r.r.r.r.r.r.",
"s.s.s.s.s.s.s.s.s.s.",
"t.t.t.t.t.t.t.t.t.t.",
"u.u.u.u.u.u.u.u.u.u.",
"v.v.v.v.v.v.v.v.v.v.",
"w.w.w.w.w.w.w.w.w.w.",
"x.x.x.x.x.x.x.x.x.x.",
"y.y.y.y.y.y.y.y.y.y.",
"z.z.z.z.z.z.z.z.z.z.",
"A.A.A.A.A.A.A.A.A.A.",
"B.B.B.B.B.B.B.B.B.B.",
"C.C.C.C.C.C.C.C.C.C.",
"D.D.D.D.D.D.D.D.D.D.",
"E.E.E.E.E.E.E.E.E.E.",
"F.F.F.F.F.F.F.F.F.F.",
"G.G.G.G.G.G.G.G.G.G.",
"H.H.H.H.H.H.H.H.H.H.",
"I.I.I.I.I.I.I.I.I.I.",
"J.J.J.J.J.J.J.J.J.J.",
"K.K.K.K.K.K.K.K.K.K.",
"L.L.L.L.L.L.L.L.L.L.",
"M.M.M.M.M.M.M.M.M.M.",
"N.N.N.N.N.N.N.N.N.N.",
"O.O.O.O.O.O.O.O.O.O.",
"P.P.P.P.P.P.P.P.P.P.",
"Q.Q.Q.Q.Q.Q.Q.Q.Q.Q.",
"R.R.R.R.R.R.R.R.R.R.",
"S.S.S.S.S.S.S.S.S.S.",
"T.T.T.T.T.T.T.T.T.T.",
"U.U.U.U.U.U.U.U.U.U.",
"V.V.V.V.V.V.V.V.V.V.",
"W.W.W.W.W.W.W.W.W.W.",
"X.X.X.X.X.X.X.X.X.X.",
"Y.Y.Y.Y.Y.Y.Y.Y.Y.Y.",
"Z.Z.Z.Z.Z.Z.Z.Z.Z.Z.",
"`.`.`.`.`.`.`.`.`.`.",
" + + + + + + + + + +",
".+.+.+.+.+.+.+.+.+.+",
"++++++++++++++++++++",
"@+@+@+@+@+@+@+@+@+@+",
"#+#+#+#+#+#+#+#+#+#+",
"$+$+$+$+$+$+$+$+$+$+",
"%+%+%+%+%+%+%+%+%+%+",
"&+&+&+&+&+&+&+&+&+&+",
"*+*+*+*+*+*+*+*+*+*+",
"=+=+=+=+=+=+=+=+=+=+",
"-+-+-+-+-+-+-+-+-+-+",
";+;+;+;+;+;+;+;+;+;+",
">+>+>+>+>+>+>+>+>+>+",
",+,+,+,+,+,+,+,+,+,+",
"'+'+'+'+'+'+'+'+'+'+",
")+)+)+)+)+)+)+)+)+)+",
"!+!+!+!+!+!+!+!+!+!+",
"~+~+~+~+~+~+~+~+~+~+",
"{+{+{+{+{+{+{+{+{+{+",
"]+]+]+]+]+]+]+]+]+]+",
"^+^+^+^+^+^+^+^+^+^+",
"/+/+/+/+/+/+/+/+/+/+",
"(+(+(+(+(+(+(+(+(+(+",
"_+_+_+_+_+_+_+_+_+_+",
":+:+:+:+:+:+:+:+:+:+",
"<+<+<+<+<+<+<+<+<+<+",
"[+[+[+[+[+[+[+[+[+[+",
"}+}+}+}+}+}+}+}+}+}+",
"|+|+|+|+|+|+|+|+|+|+",
"1+1+1+1+1+1+1+1+1+1+",
"2+2+2+2+2+2+2+2+2+2+",
"3+3+3+3+3+3+3+3+3+3+",
"4+4+4+4+4+4+4+4+4+4+",
"5+5+5+5+5+5+5+5+5+5+",
"6+6+6+6+6+6+6+6+6+6+",
"7+7+7+7+7+7+7+7+7+7+",
"8+8+8+8+8+8+8+8+8+8+",
"9+9+9+9+9+9+9+9+9+9+",
"0+0+0+0+0+0+0+0+0+0+",
"a+a+a+a+a+a+a+a+a+a+",
"b+b+b+b+b+b+b+b+b+b+",
"c+c+c+c+c+c+c+c+c+c+",
"d+d+d+d+d+d+d+d+d+d+",
"e+e+e+e+e+e+e+e+e+e+",
"f+f+f+f+f+f+f+f+f+f+",
"g+g+g+g+g+g+g+g+g+g+",
"h+h+h+h+h+h+h+h+h+h+",
"i+i+i+i+i+i+i+i+i+i+",
"j+j+j+j+j+j+j+j+j+j+",
"k+k+k+k+k+k+k+k+k+k+",
"l+l+l+l+l+l+l+l+l+l+",
"m+m+m+m+m+m+m+m+m+m+",
"n+n+n+n+n+n+n+n+n+n+",
"o+o+o+o+o+o+o+o+o+o+",
"p+p+p+p+p+p+p+p+p+p+",
"q+q+q+q+q+q+q+q+q+q+",
"r+r+r+r+r+r+r+r+r+r+",
"s+s+s+s+s+s+s+s+s+s+",
"t+t+t+t+t+t+t+t+t+t+",
"u+u+u+u+u+u+u+u+u+u+",
"v+v+v+v+v+v+v+v+v+v+",
"w+w+w+w+w+w+w+w+w+w+",
"x+x+x+x+x+x+x+x+x+x+",
"y+y+y+y+y+y+y+y+y+y+",
"z+z+z+z+z+z+z+z+z+z+",
"A+A+A+A+A+A+A+A+A+A+",
"B+B+B+B+B+B+B+B+B+B+",
"C+C+C+C+C+C+C+C+C+C+",
"D+D+D+D+D+D+D+D+D+D+",
"E+E+E+E+E+E+E+E+E+E+",
"F+F+F+F+F+F+F+F+F+F+",
"G+G+G+G+G+G+G+G+G+G+",
". . . . . . . . . . "};
